<?xml version="1.0" encoding="utf-8"?>
<!-- Generator: Adobe Illustrator 15.1.0, SVG Export Plug-In . SVG Version: 6.00 Build 0)  -->
<!DOCTYPE svg PUBLIC "-//W3C//DTD SVG 1.1//EN" "http://www.w3.org/Graphics/SVG/1.1/DTD/svg11.dtd">
<svg version="1.1" id="Layer_1" xmlns="http://www.w3.org/2000/svg" xmlns:xlink="http://www.w3.org/1999/xlink" x="0px" y="0px"
	 width="800px" height="600px" viewBox="0 0 800 600" enable-background="new 0 0 800 600" xml:space="preserve">
<g id="drawing">
	<polygon stroke="#0000FF" stroke-miterlimit="10" points="275,200 50,450 275,450 275,525 525,525 525,450 750,450 525,200 
		525,150 475,50 325,50 275,150 	"/>
	<polygon fill="none" stroke="#0000FF" stroke-miterlimit="10" points="500,175 500,350 525,350 525,325 625,325 625,425 525,425 
		525,400 500,400 500,425 425,425 425,450 500,450 500,500 300,500 300,450 375,450 375,425 300,425 300,400 275,400 275,425 
		175,425 175,325 275,325 275,350 300,350 300,175 375,175 375,150 325,150 325,75 475,75 475,150 425,150 425,175 	"/>
	<polygon fill="none" stroke="#0000FF" stroke-miterlimit="10" points="425,350 425,250 450,250 450,375 350,375 350,250 375,250 
		375,350 	"/>
</g>
</svg>
