<?xml version="1.0" encoding="utf-8"?>
<!-- Generator: Adobe Illustrator 15.1.0, SVG Export Plug-In . SVG Version: 6.00 Build 0)  -->
<!DOCTYPE svg PUBLIC "-//W3C//DTD SVG 1.1//EN" "http://www.w3.org/Graphics/SVG/1.1/DTD/svg11.dtd">
<svg version="1.1" xmlns="http://www.w3.org/2000/svg" xmlns:xlink="http://www.w3.org/1999/xlink" x="0px" y="0px" width="2400px"
	 height="1600px" viewBox="0 0 2400 1600" enable-background="new 0 0 2400 1600" xml:space="preserve">
<g id="Layer_1">
	<g id="Layer_3" display="none">
		<polygon display="inline" fill="#484CA1" points="100,500 500,100 2000,100 2300,400 2300,1200 2000,1500 500,1500 100,1100 		"/>
		<rect x="200" y="600" display="inline" width="150" height="400"/>
		<rect x="350" y="900" display="inline" width="1850" height="100"/>
		<rect x="400" y="400" display="inline" width="100" height="500"/>
		<rect x="500" y="400" display="inline" width="1700" height="100"/>
		<rect x="2100" y="500" display="inline" width="100" height="400"/>
		<rect x="550" y="1000" display="inline" width="1500" height="50"/>
		<rect x="1700" y="850" display="inline" width="100" height="50"/>
		<rect x="800" y="850" display="inline" width="100" height="50"/>
		<rect x="550" y="550" display="inline" width="725" height="300"/>
		<rect x="1325" y="550" display="inline" width="725" height="300"/>
		<rect x="600" y="300" display="inline" width="100" height="100"/>
		<rect x="500" y="100" display="inline" width="300" height="200"/>
		<rect x="900" y="100" display="inline" width="300" height="200"/>
		<rect x="1000" y="300" display="inline" width="100" height="100"/>
		<rect x="1300" y="100" display="inline" width="300" height="200"/>
		<rect x="1400" y="300" display="inline" width="100" height="100"/>
		<rect x="1700" y="100" display="inline" width="300" height="200"/>
		<rect x="1800" y="300" display="inline" width="100" height="100"/>
		<rect x="400" y="1000" display="inline" width="100" height="200"/>
		<rect x="500" y="1100" display="inline" width="1700" height="100"/>
		<rect x="2100" y="1000" display="inline" width="100" height="100"/>
		<rect x="1800" y="1200" display="inline" width="100" height="100"/>
		<rect x="1700" y="1300" display="inline" width="300" height="200"/>
		<rect x="1400" y="1200" display="inline" width="100" height="100"/>
		<rect x="1300" y="1300" display="inline" width="300" height="200"/>
		<rect x="1000" y="1200" display="inline" width="100" height="100"/>
		<rect x="900" y="1300" display="inline" width="300" height="200"/>
		<rect x="600" y="1200" display="inline" width="100" height="100"/>
		<rect x="500" y="1300" display="inline" width="300" height="200"/>
	</g>
	<g display="none">
		
			<line display="inline" fill="none" stroke="#5BA1DA" stroke-width="2" stroke-miterlimit="10" x1="250" y1="50" x2="250" y2="150"/>
		
			<line display="inline" fill="none" stroke="#5BA1DA" stroke-width="2" stroke-miterlimit="10" x1="250" y1="150" x2="300" y2="150"/>
		
			<line display="inline" fill="none" stroke="#5BA1DA" stroke-width="2" stroke-miterlimit="10" x1="350" y1="150" x2="400" y2="150"/>
		
			<line display="inline" fill="none" stroke="#5BA1DA" stroke-width="2" stroke-miterlimit="10" x1="400" y1="150" x2="400" y2="50"/>
		
			<line display="inline" fill="none" stroke="#5BA1DA" stroke-width="2" stroke-miterlimit="10" x1="450" y1="50" x2="450" y2="150"/>
		
			<line display="inline" fill="none" stroke="#5BA1DA" stroke-width="2" stroke-miterlimit="10" x1="450" y1="150" x2="500" y2="150"/>
		
			<line display="inline" fill="none" stroke="#5BA1DA" stroke-width="2" stroke-miterlimit="10" x1="550" y1="150" x2="600" y2="150"/>
		
			<line display="inline" fill="none" stroke="#5BA1DA" stroke-width="2" stroke-miterlimit="10" x1="600" y1="150" x2="600" y2="50"/>
		
			<line display="inline" fill="none" stroke="#5BA1DA" stroke-width="2" stroke-miterlimit="10" x1="650" y1="50" x2="650" y2="150"/>
		
			<line display="inline" fill="none" stroke="#5BA1DA" stroke-width="2" stroke-miterlimit="10" x1="650" y1="150" x2="700" y2="150"/>
		
			<line display="inline" fill="none" stroke="#5BA1DA" stroke-width="2" stroke-miterlimit="10" x1="750" y1="150" x2="800" y2="150"/>
		
			<line display="inline" fill="none" stroke="#5BA1DA" stroke-width="2" stroke-miterlimit="10" x1="800" y1="150" x2="800" y2="50"/>
		
			<line display="inline" fill="none" stroke="#5BA1DA" stroke-width="2" stroke-miterlimit="10" x1="850" y1="50" x2="850" y2="150"/>
		
			<line display="inline" fill="none" stroke="#5BA1DA" stroke-width="2" stroke-miterlimit="10" x1="850" y1="150" x2="900" y2="150"/>
		
			<line display="inline" fill="none" stroke="#5BA1DA" stroke-width="2" stroke-miterlimit="10" x1="950" y1="150" x2="1000" y2="150"/>
		
			<line display="inline" fill="none" stroke="#5BA1DA" stroke-width="2" stroke-miterlimit="10" x1="1000" y1="150" x2="1000" y2="50"/>
		
			<line display="inline" fill="none" stroke="#5BA1DA" stroke-width="2" stroke-miterlimit="10" x1="300" y1="150" x2="300" y2="200"/>
		
			<line display="inline" fill="none" stroke="#5BA1DA" stroke-width="2" stroke-miterlimit="10" x1="350" y1="150" x2="350" y2="200"/>
		
			<line display="inline" fill="none" stroke="#5BA1DA" stroke-width="2" stroke-miterlimit="10" x1="500" y1="150" x2="500" y2="200"/>
		
			<line display="inline" fill="none" stroke="#5BA1DA" stroke-width="2" stroke-miterlimit="10" x1="550" y1="150" x2="550" y2="200"/>
		
			<line display="inline" fill="none" stroke="#5BA1DA" stroke-width="2" stroke-miterlimit="10" x1="700" y1="150" x2="700" y2="200"/>
		
			<line display="inline" fill="none" stroke="#5BA1DA" stroke-width="2" stroke-miterlimit="10" x1="750" y1="150" x2="750" y2="200"/>
		
			<line display="inline" fill="none" stroke="#5BA1DA" stroke-width="2" stroke-miterlimit="10" x1="900" y1="150" x2="900" y2="200"/>
		
			<line display="inline" fill="none" stroke="#5BA1DA" stroke-width="2" stroke-miterlimit="10" x1="950" y1="150" x2="950" y2="200"/>
		
			<line display="inline" fill="none" stroke="#5BA1DA" stroke-width="2" stroke-miterlimit="10" x1="1100" y1="200" x2="950" y2="200"/>
		
			<line display="inline" fill="none" stroke="#5BA1DA" stroke-width="2" stroke-miterlimit="10" x1="900" y1="200" x2="750" y2="200"/>
		
			<line display="inline" fill="none" stroke="#5BA1DA" stroke-width="2" stroke-miterlimit="10" x1="700" y1="200" x2="550" y2="200"/>
		
			<line display="inline" fill="none" stroke="#5BA1DA" stroke-width="2" stroke-miterlimit="10" x1="500" y1="200" x2="350" y2="200"/>
		
			<line display="inline" fill="none" stroke="#5BA1DA" stroke-width="2" stroke-miterlimit="10" x1="300" y1="200" x2="200" y2="200"/>
		
			<line display="inline" fill="none" stroke="#5BA1DA" stroke-width="2" stroke-miterlimit="10" x1="200" y1="200" x2="200" y2="300"/>
		
			<line display="inline" fill="none" stroke="#5BA1DA" stroke-width="2" stroke-miterlimit="10" x1="300" y1="600" x2="200" y2="600"/>
		
			<line display="inline" fill="none" stroke="#5BA1DA" stroke-width="2" stroke-miterlimit="10" x1="200" y1="600" x2="200" y2="500"/>
		
			<line display="inline" fill="none" stroke="#5BA1DA" stroke-width="2" stroke-miterlimit="10" x1="100" y1="500" x2="100" y2="300"/>
		
			<line display="inline" fill="none" stroke="#5BA1DA" stroke-width="2" stroke-miterlimit="10" x1="100" y1="300" x2="175" y2="300"/>
		
			<line display="inline" fill="none" stroke="#5BA1DA" stroke-width="2" stroke-miterlimit="10" x1="400.5" y1="675.5" x2="400.5" y2="525.5"/>
		
			<line display="inline" fill="none" stroke="#5BA1DA" stroke-width="2" stroke-miterlimit="10" x1="1150.5" y1="525.5" x2="1150.5" y2="675.5"/>
		
			<line display="inline" fill="none" stroke="#5BA1DA" stroke-width="2" stroke-miterlimit="10" x1="400.5" y1="700.5" x2="375.5" y2="700.5"/>
		
			<line display="inline" fill="none" stroke="#5BA1DA" stroke-width="2" stroke-miterlimit="10" x1="200" y1="300" x2="200" y2="450"/>
		
			<line display="inline" fill="none" stroke="#5BA1DA" stroke-width="2" stroke-miterlimit="10" x1="200" y1="450" x2="175" y2="450"/>
		
			<line display="inline" fill="none" stroke="#5BA1DA" stroke-width="2" stroke-miterlimit="10" x1="175" y1="450" x2="175" y2="300"/>
		
			<line display="inline" fill="none" stroke="#5BA1DA" stroke-width="2" stroke-miterlimit="10" x1="400.5" y1="675.5" x2="525.5" y2="675.5"/>
		
			<line display="inline" fill="none" stroke="#5BA1DA" stroke-width="2" stroke-miterlimit="10" x1="525.5" y1="675.5" x2="525.5" y2="700.5"/>
		
			<line display="inline" fill="none" stroke="#5BA1DA" stroke-width="2" stroke-miterlimit="10" x1="525.5" y1="700.5" x2="388" y2="700.5"/>
		
			<line display="inline" fill="none" stroke="#5BA1DA" stroke-width="2" stroke-miterlimit="10" x1="1150.5" y1="675.5" x2="1025.5" y2="675.5"/>
		
			<line display="inline" fill="none" stroke="#5BA1DA" stroke-width="2" stroke-miterlimit="10" x1="1025.5" y1="675.5" x2="1025.5" y2="700.5"/>
		
			<line display="inline" fill="none" stroke="#5BA1DA" stroke-width="2" stroke-miterlimit="10" x1="1025.5" y1="700.5" x2="1200.5" y2="700.5"/>
		
			<line display="inline" fill="none" stroke="#5BA1DA" stroke-width="2" stroke-miterlimit="10" x1="575.5" y1="675.5" x2="575.5" y2="700.5"/>
		
			<line display="inline" fill="none" stroke="#5BA1DA" stroke-width="2" stroke-miterlimit="10" x1="575.5" y1="700.5" x2="975.5" y2="700.5"/>
		
			<line display="inline" fill="none" stroke="#5BA1DA" stroke-width="2" stroke-miterlimit="10" x1="975.5" y1="700.5" x2="975.5" y2="675.5"/>
		
			<line display="inline" fill="none" stroke="#5BA1DA" stroke-width="2" stroke-miterlimit="10" x1="750.5" y1="675.5" x2="575.5" y2="675.5"/>
		
			<line display="inline" fill="none" stroke="#5BA1DA" stroke-width="2" stroke-miterlimit="10" x1="975.5" y1="675.5" x2="800.5" y2="675.5"/>
		
			<line display="inline" fill="none" stroke="#5BA1DA" stroke-width="2" stroke-miterlimit="10" x1="1050" y1="50" x2="1050" y2="150"/>
		
			<line display="inline" fill="none" stroke="#5BA1DA" stroke-width="2" stroke-miterlimit="10" x1="1050" y1="150" x2="1100" y2="150"/>
		
			<line display="inline" fill="none" stroke="#5BA1DA" stroke-width="2" stroke-miterlimit="10" x1="1150" y1="150" x2="1200" y2="150"/>
		
			<line display="inline" fill="none" stroke="#5BA1DA" stroke-width="2" stroke-miterlimit="10" x1="1200" y1="150" x2="1200" y2="50"/>
		
			<line display="inline" fill="none" stroke="#5BA1DA" stroke-width="2" stroke-miterlimit="10" x1="1250" y1="50" x2="1250" y2="150"/>
		
			<line display="inline" fill="none" stroke="#5BA1DA" stroke-width="2" stroke-miterlimit="10" x1="1250" y1="150" x2="1300" y2="150"/>
		
			<line display="inline" fill="none" stroke="#5BA1DA" stroke-width="2" stroke-miterlimit="10" x1="1350" y1="150" x2="1400" y2="150"/>
		
			<line display="inline" fill="none" stroke="#5BA1DA" stroke-width="2" stroke-miterlimit="10" x1="1400" y1="150" x2="1400" y2="50"/>
		
			<line display="inline" fill="none" stroke="#5BA1DA" stroke-width="2" stroke-miterlimit="10" x1="1450" y1="50" x2="1450" y2="150"/>
		
			<line display="inline" fill="none" stroke="#5BA1DA" stroke-width="2" stroke-miterlimit="10" x1="1450" y1="150" x2="1500" y2="150"/>
		
			<line display="inline" fill="none" stroke="#5BA1DA" stroke-width="2" stroke-miterlimit="10" x1="1550" y1="150" x2="1600" y2="150"/>
		
			<line display="inline" fill="none" stroke="#5BA1DA" stroke-width="2" stroke-miterlimit="10" x1="1600" y1="150" x2="1600" y2="50"/>
		
			<line display="inline" fill="none" stroke="#5BA1DA" stroke-width="2" stroke-miterlimit="10" x1="1650" y1="50" x2="1650" y2="150"/>
		
			<line display="inline" fill="none" stroke="#5BA1DA" stroke-width="2" stroke-miterlimit="10" x1="1650" y1="150" x2="1700" y2="150"/>
		
			<line display="inline" fill="none" stroke="#5BA1DA" stroke-width="2" stroke-miterlimit="10" x1="1700" y1="150" x2="1700" y2="200"/>
		
			<line display="inline" fill="none" stroke="#5BA1DA" stroke-width="2" stroke-miterlimit="10" x1="1550" y1="150" x2="1550" y2="200"/>
		
			<line display="inline" fill="none" stroke="#5BA1DA" stroke-width="2" stroke-miterlimit="10" x1="1500" y1="150" x2="1500" y2="200"/>
		
			<line display="inline" fill="none" stroke="#5BA1DA" stroke-width="2" stroke-miterlimit="10" x1="1350" y1="150" x2="1350" y2="200"/>
		
			<line display="inline" fill="none" stroke="#5BA1DA" stroke-width="2" stroke-miterlimit="10" x1="1300" y1="150" x2="1300" y2="200"/>
		
			<line display="inline" fill="none" stroke="#5BA1DA" stroke-width="2" stroke-miterlimit="10" x1="1150" y1="150" x2="1150" y2="200"/>
		
			<line display="inline" fill="none" stroke="#5BA1DA" stroke-width="2" stroke-miterlimit="10" x1="1100" y1="150" x2="1100" y2="200"/>
		
			<line display="inline" fill="none" stroke="#5BA1DA" stroke-width="2" stroke-miterlimit="10" x1="300" y1="600" x2="300" y2="700"/>
		
			<line display="inline" fill="none" stroke="#5BA1DA" stroke-width="2" stroke-miterlimit="10" x1="50" y1="700" x2="50" y2="1225"/>
		
			<line display="inline" fill="none" stroke="#5BA1DA" stroke-width="2" stroke-miterlimit="10" x1="525" y1="950" x2="550" y2="950"/>
		
			<line display="inline" fill="none" stroke="#5BA1DA" stroke-width="2" stroke-miterlimit="10" x1="525" y1="975" x2="525" y2="1225"/>
		
			<line display="inline" fill="none" stroke="#5BA1DA" stroke-width="2" stroke-miterlimit="10" x1="525" y1="1225" x2="100" y2="1225"/>
		
			<line display="inline" fill="none" stroke="#5BA1DA" stroke-width="2" stroke-miterlimit="10" x1="250" y1="50" x2="51.938" y2="251.93"/>
		
			<line display="inline" fill="none" stroke="#5BA1DA" stroke-width="2" stroke-miterlimit="10" x1="0" y1="1300" x2="0" y2="1299.572"/>
		
			<line display="inline" fill="none" stroke="#5BA1DA" stroke-width="2" stroke-miterlimit="10" x1="2150" y1="50" x2="2350" y2="250"/>
		
			<line display="inline" fill="none" stroke="#5BA1DA" stroke-width="2" stroke-miterlimit="10" x1="2350" y1="1350" x2="2150" y2="1550"/>
		
			<line display="inline" fill="none" stroke="#5BA1DA" stroke-width="2" stroke-miterlimit="10" x1="50" y1="1350" x2="249.46" y2="1550.539"/>
		
			<line display="inline" fill="none" stroke="#5BA1DA" stroke-width="2" stroke-miterlimit="10" x1="50" y1="250" x2="50" y2="1350"/>
		
			<line display="inline" fill="none" stroke="#5BA1DA" stroke-width="2" stroke-miterlimit="10" x1="250" y1="1550" x2="2150" y2="1550"/>
		
			<line display="inline" fill="none" stroke="#5BA1DA" stroke-width="2" stroke-miterlimit="10" x1="2350" y1="250" x2="2350" y2="1350"/>
		
			<line display="inline" fill="none" stroke="#5BA1DA" stroke-width="2" stroke-miterlimit="10" x1="250" y1="50" x2="2150" y2="50"/>
		
			<line display="inline" fill="none" stroke="#5BA1DA" stroke-width="2" stroke-miterlimit="10" x1="1150" y1="200" x2="1300" y2="200"/>
		
			<line display="inline" fill="none" stroke="#5BA1DA" stroke-width="2" stroke-miterlimit="10" x1="1350" y1="200" x2="1500" y2="200"/>
		
			<line display="inline" fill="none" stroke="#5BA1DA" stroke-width="2" stroke-miterlimit="10" x1="1550" y1="200" x2="1700" y2="200"/>
		
			<line display="inline" fill="none" stroke="#5BA1DA" stroke-width="2" stroke-miterlimit="10" x1="1750" y1="150" x2="1800" y2="150"/>
		
			<line display="inline" fill="none" stroke="#5BA1DA" stroke-width="2" stroke-miterlimit="10" x1="1800" y1="150" x2="1800" y2="50"/>
		
			<line display="inline" fill="none" stroke="#5BA1DA" stroke-width="2" stroke-miterlimit="10" x1="1850" y1="50" x2="1850" y2="150"/>
		
			<line display="inline" fill="none" stroke="#5BA1DA" stroke-width="2" stroke-miterlimit="10" x1="1850" y1="150" x2="1900" y2="150"/>
		
			<line display="inline" fill="none" stroke="#5BA1DA" stroke-width="2" stroke-miterlimit="10" x1="1900" y1="150" x2="1900" y2="200"/>
		
			<line display="inline" fill="none" stroke="#5BA1DA" stroke-width="2" stroke-miterlimit="10" x1="1750" y1="150" x2="1750" y2="200"/>
		
			<line display="inline" fill="none" stroke="#5BA1DA" stroke-width="2" stroke-miterlimit="10" x1="1750" y1="200" x2="1900" y2="200"/>
		
			<line display="inline" fill="none" stroke="#5BA1DA" stroke-width="2" stroke-miterlimit="10" x1="1950" y1="150" x2="2000" y2="150"/>
		
			<line display="inline" fill="none" stroke="#5BA1DA" stroke-width="2" stroke-miterlimit="10" x1="2000" y1="150" x2="2000" y2="50"/>
		
			<line display="inline" fill="none" stroke="#5BA1DA" stroke-width="2" stroke-miterlimit="10" x1="1950" y1="150" x2="1950" y2="200"/>
		
			<line display="inline" fill="none" stroke="#5BA1DA" stroke-width="2" stroke-miterlimit="10" x1="1950" y1="200" x2="2000" y2="200"/>
		
			<line display="inline" fill="none" stroke="#5BA1DA" stroke-width="2" stroke-miterlimit="10" x1="100" y1="625" x2="100" y2="950"/>
		
			<line display="inline" fill="none" stroke="#5BA1DA" stroke-width="2" stroke-miterlimit="10" x1="250" y1="525" x2="250" y2="500"/>
		
			<line display="inline" fill="none" stroke="#5BA1DA" stroke-width="2" stroke-miterlimit="10" x1="2050" y1="500" x2="2050" y2="550"/>
		
			<line display="inline" fill="none" stroke="#5BA1DA" stroke-width="2" stroke-miterlimit="10" x1="1175.5" y1="325.5" x2="1175.5" y2="550.5"/>
		
			<line display="inline" fill="none" stroke="#5BA1DA" stroke-width="2" stroke-miterlimit="10" x1="1150.5" y1="350.5" x2="1150.5" y2="500.5"/>
		
			<line display="inline" fill="none" stroke="#5BA1DA" stroke-width="2" stroke-miterlimit="10" x1="400.5" y1="500.5" x2="400.5" y2="350.5"/>
		
			<line display="inline" fill="none" stroke="#5BA1DA" stroke-width="2" stroke-miterlimit="10" x1="1150.5" y1="325.5" x2="1175.5" y2="325.5"/>
		
			<line display="inline" fill="none" stroke="#5BA1DA" stroke-width="2" stroke-miterlimit="10" x1="400.5" y1="325.5" x2="375.5" y2="325.5"/>
		
			<line display="inline" fill="none" stroke="#5BA1DA" stroke-width="2" stroke-miterlimit="10" x1="1150.5" y1="350.5" x2="1025.5" y2="350.5"/>
		
			<line display="inline" fill="none" stroke="#5BA1DA" stroke-width="2" stroke-miterlimit="10" x1="1025.5" y1="350.5" x2="1025.5" y2="325.5"/>
		
			<line display="inline" fill="none" stroke="#5BA1DA" stroke-width="2" stroke-miterlimit="10" x1="1025.5" y1="325.5" x2="1163" y2="325.5"/>
		
			<line display="inline" fill="none" stroke="#5BA1DA" stroke-width="2" stroke-miterlimit="10" x1="400.5" y1="350.5" x2="525.5" y2="350.5"/>
		
			<line display="inline" fill="none" stroke="#5BA1DA" stroke-width="2" stroke-miterlimit="10" x1="525.5" y1="350.5" x2="525.5" y2="325.5"/>
		
			<line display="inline" fill="none" stroke="#5BA1DA" stroke-width="2" stroke-miterlimit="10" x1="525.5" y1="325.5" x2="400.5" y2="325.5"/>
		
			<line display="inline" fill="none" stroke="#5BA1DA" stroke-width="2" stroke-miterlimit="10" x1="975.5" y1="350.5" x2="975.5" y2="325.5"/>
		
			<line display="inline" fill="none" stroke="#5BA1DA" stroke-width="2" stroke-miterlimit="10" x1="975.5" y1="325.5" x2="575.5" y2="325.5"/>
		
			<line display="inline" fill="none" stroke="#5BA1DA" stroke-width="2" stroke-miterlimit="10" x1="575.5" y1="325.5" x2="575.5" y2="350.5"/>
		
			<line display="inline" fill="none" stroke="#5BA1DA" stroke-width="2" stroke-miterlimit="10" x1="800.5" y1="350.5" x2="975.5" y2="350.5"/>
		
			<line display="inline" fill="none" stroke="#5BA1DA" stroke-width="2" stroke-miterlimit="10" x1="575.5" y1="350.5" x2="750.5" y2="350.5"/>
		
			<line display="inline" fill="none" stroke="#5BA1DA" stroke-width="2" stroke-miterlimit="10" x1="2050" y1="150" x2="2050" y2="450"/>
		
			<line display="inline" fill="none" stroke="#5BA1DA" stroke-width="2" stroke-miterlimit="10" x1="2000" y1="450" x2="2000" y2="200"/>
		
			<line display="inline" fill="none" stroke="#5BA1DA" stroke-width="2" stroke-miterlimit="10" x1="2000" y1="450" x2="2050" y2="450"/>
		
			<line display="inline" fill="none" stroke="#5BA1DA" stroke-width="2" stroke-miterlimit="10" x1="2050" y1="150" x2="2150.5" y2="150"/>
		
			<line display="inline" fill="none" stroke="#5BA1DA" stroke-width="2" stroke-miterlimit="10" x1="525" y1="950" x2="350" y2="950"/>
		
			<line display="inline" fill="none" stroke="#5BA1DA" stroke-width="2" stroke-miterlimit="10" x1="275" y1="950" x2="100" y2="950"/>
		
			<line display="inline" fill="none" stroke="#5BA1DA" stroke-width="2" stroke-miterlimit="10" x1="100" y1="975" x2="300" y2="975"/>
		
			<line display="inline" fill="none" stroke="#5BA1DA" stroke-width="2" stroke-miterlimit="10" x1="300" y1="975" x2="300" y2="750"/>
		
			<line display="inline" fill="none" stroke="#5BA1DA" stroke-width="2" stroke-miterlimit="10" x1="350" y1="950" x2="350" y2="975"/>
		
			<line display="inline" fill="none" stroke="#5BA1DA" stroke-width="2" stroke-miterlimit="10" x1="350" y1="975" x2="525" y2="975"/>
		
			<line display="inline" fill="none" stroke="#5BA1DA" stroke-width="2" stroke-miterlimit="10" x1="100" y1="975" x2="100" y2="1225"/>
		
			<line display="inline" fill="none" stroke="#5BA1DA" stroke-width="2" stroke-miterlimit="10" x1="275" y1="700" x2="275" y2="625"/>
		
			<line display="inline" fill="none" stroke="#5BA1DA" stroke-width="2" stroke-miterlimit="10" x1="275" y1="625" x2="100" y2="625"/>
		
			<line display="inline" fill="none" stroke="#5BA1DA" stroke-width="2" stroke-miterlimit="10" x1="200" y1="500" x2="100" y2="500"/>
		
			<line display="inline" fill="none" stroke="#5BA1DA" stroke-width="2" stroke-miterlimit="10" x1="275" y1="750" x2="275" y2="950"/>
		
			<line display="inline" fill="none" stroke="#5BA1DA" stroke-width="2" stroke-miterlimit="10" x1="275" y1="750" x2="300" y2="750"/>
		
			<line display="inline" fill="none" stroke="#5BA1DA" stroke-width="2" stroke-miterlimit="10" x1="275" y1="700" x2="300" y2="700"/>
		
			<line display="inline" fill="none" stroke="#5BA1DA" stroke-width="2" stroke-miterlimit="10" x1="100" y1="1250" x2="100" y2="1350"/>
		
			<line display="inline" fill="none" stroke="#5BA1DA" stroke-width="2" stroke-miterlimit="10" x1="2300" y1="1300.5" x2="2300" y2="250.5"/>
		
			<line display="inline" fill="none" stroke="#5BA1DA" stroke-width="2" stroke-miterlimit="10" x1="1700.5" y1="1500.5" x2="1700.5" y2="1350.5"/>
		
			<line display="inline" fill="none" stroke="#5BA1DA" stroke-width="2" stroke-miterlimit="10" x1="1700.5" y1="1350.5" x2="1750.5" y2="1350.5"/>
		
			<line display="inline" fill="none" stroke="#5BA1DA" stroke-width="2" stroke-miterlimit="10" x1="1750.5" y1="1350.5" x2="1750.5" y2="1500.5"/>
		
			<line display="inline" fill="none" stroke="#5BA1DA" stroke-width="2" stroke-miterlimit="10" x1="1750.5" y1="1500.5" x2="2100.5" y2="1500.5"/>
		
			<line display="inline" fill="none" stroke="#5BA1DA" stroke-width="2" stroke-miterlimit="10" x1="2150.5" y1="150.5" x2="2150.5" y2="250.5"/>
		
			<line display="inline" fill="none" stroke="#5BA1DA" stroke-width="2" stroke-miterlimit="10" x1="2150.5" y1="250.5" x2="2300.5" y2="250.5"/>
		
			<line display="inline" fill="none" stroke="#5BA1DA" stroke-width="2" stroke-miterlimit="10" x1="2100.5" y1="1500.5" x2="2100.5" y2="1300.5"/>
		
			<line display="inline" fill="none" stroke="#5BA1DA" stroke-width="2" stroke-miterlimit="10" x1="2100.5" y1="1300.5" x2="2300.5" y2="1300.5"/>
		
			<line display="inline" fill="none" stroke="#5BA1DA" stroke-width="2" stroke-miterlimit="10" x1="1700.5" y1="700.5" x2="1750.5" y2="700.5"/>
		
			<line display="inline" fill="none" stroke="#5BA1DA" stroke-width="2" stroke-miterlimit="10" x1="1750.5" y1="600.5" x2="1750.5" y2="700.5"/>
		
			<line display="inline" fill="none" stroke="#5BA1DA" stroke-width="2" stroke-miterlimit="10" x1="800.5" y1="1000.5" x2="1250.5" y2="1000.5"/>
		
			<line display="inline" fill="none" stroke="#5BA1DA" stroke-width="2" stroke-miterlimit="10" x1="1175.5" y1="550.5" x2="2000.5" y2="550.5"/>
		
			<line display="inline" fill="none" stroke="#5BA1DA" stroke-width="2" stroke-miterlimit="10" x1="1700.5" y1="600.5" x2="1700.5" y2="700.5"/>
		
			<line display="inline" fill="none" stroke="#5BA1DA" stroke-width="2" stroke-miterlimit="10" x1="1250.5" y1="1050.5" x2="1250.5" y2="1500.5"/>
		
			<line display="inline" fill="none" stroke="#5BA1DA" stroke-width="2" stroke-miterlimit="10" x1="1250.5" y1="1500.5" x2="1700.5" y2="1500.5"/>
		
			<line display="inline" fill="none" stroke="#5BA1DA" stroke-width="2" stroke-miterlimit="10" x1="800.5" y1="1000.5" x2="800.5" y2="975.5"/>
		
			<line display="inline" fill="none" stroke="#5BA1DA" stroke-width="2" stroke-miterlimit="10" x1="800.5" y1="975.5" x2="1200.5" y2="975.5"/>
		
			<line display="inline" fill="none" stroke="#5BA1DA" stroke-width="2" stroke-miterlimit="10" x1="1250.5" y1="1050.5" x2="1200.5" y2="1050.5"/>
		
			<line display="inline" fill="none" stroke="#5BA1DA" stroke-width="2" stroke-miterlimit="10" x1="1200.5" y1="1050.5" x2="1200.5" y2="1225.5"/>
		
			<line display="inline" fill="none" stroke="#5BA1DA" stroke-width="2" stroke-miterlimit="10" x1="600.5" y1="1225.5" x2="1000.5" y2="1225.5"/>
		
			<line display="inline" fill="none" stroke="#5BA1DA" stroke-width="2" stroke-miterlimit="10" x1="1050.5" y1="1225.5" x2="1200.5" y2="1225.5"/>
		
			<line display="inline" fill="none" stroke="#5BA1DA" stroke-width="2" stroke-miterlimit="10" x1="1200.5" y1="1250.5" x2="1050.5" y2="1250.5"/>
		
			<line display="inline" fill="none" stroke="#5BA1DA" stroke-width="2" stroke-miterlimit="10" x1="1050.5" y1="1250.5" x2="1050.5" y2="1225.5"/>
		
			<line display="inline" fill="none" stroke="#5BA1DA" stroke-width="2" stroke-miterlimit="10" x1="1000.5" y1="1225.5" x2="1000.5" y2="1250.5"/>
		
			<line display="inline" fill="none" stroke="#5BA1DA" stroke-width="2" stroke-miterlimit="10" x1="600.5" y1="1250.5" x2="600.5" y2="1225.5"/>
		
			<line display="inline" fill="none" stroke="#5BA1DA" stroke-width="2" stroke-miterlimit="10" x1="1200.5" y1="1250.5" x2="1200.5" y2="1500.5"/>
		
			<line display="inline" fill="none" stroke="#5BA1DA" stroke-width="2" stroke-miterlimit="10" x1="550.5" y1="1000.5" x2="750.5" y2="1000.5"/>
		
			<line display="inline" fill="none" stroke="#5BA1DA" stroke-width="2" stroke-miterlimit="10" x1="750.5" y1="1000.5" x2="750.5" y2="975.5"/>
		
			<line display="inline" fill="none" stroke="#5BA1DA" stroke-width="2" stroke-miterlimit="10" x1="750.5" y1="975.5" x2="550.5" y2="975.5"/>
		
			<line display="inline" fill="none" stroke="#5BA1DA" stroke-width="2" stroke-miterlimit="10" x1="550.5" y1="975.5" x2="550.5" y2="950.5"/>
		
			<line display="inline" fill="none" stroke="#5BA1DA" stroke-width="2" stroke-miterlimit="10" x1="550.5" y1="1000.5" x2="550.5" y2="1250.5"/>
		
			<line display="inline" fill="none" stroke="#5BA1DA" stroke-width="2" stroke-miterlimit="10" x1="800.5" y1="1250.5" x2="800.5" y2="1500.5"/>
		
			<line display="inline" fill="none" stroke="#5BA1DA" stroke-width="2" stroke-miterlimit="10" x1="775.5" y1="1500.5" x2="775.5" y2="1250.5"/>
		
			<line display="inline" fill="none" stroke="#5BA1DA" stroke-width="2" stroke-miterlimit="10" x1="600.5" y1="1250.5" x2="775.5" y2="1250.5"/>
		
			<line display="inline" fill="none" stroke="#5BA1DA" stroke-width="2" stroke-miterlimit="10" x1="800.5" y1="1250.5" x2="1000.5" y2="1250.5"/>
		
			<line display="inline" fill="none" stroke="#5BA1DA" stroke-width="2" stroke-miterlimit="10" x1="250.5" y1="1500.5" x2="775.5" y2="1500.5"/>
		
			<line display="inline" fill="none" stroke="#5BA1DA" stroke-width="2" stroke-miterlimit="10" x1="800.5" y1="1500.5" x2="1200.5" y2="1500.5"/>
		
			<line display="inline" fill="none" stroke="#5BA1DA" stroke-width="2" stroke-miterlimit="10" x1="250.5" y1="1500.5" x2="250.5" y2="1325.5"/>
		
			<line display="inline" fill="none" stroke="#5BA1DA" stroke-width="2" stroke-miterlimit="10" x1="250.5" y1="1250.5" x2="250.5" y2="1275.5"/>
		
			<line display="inline" fill="none" stroke="#5BA1DA" stroke-width="2" stroke-miterlimit="10" x1="250.5" y1="1275.5" x2="225.5" y2="1275.5"/>
		
			<line display="inline" fill="none" stroke="#5BA1DA" stroke-width="2" stroke-miterlimit="10" x1="225.5" y1="1275.5" x2="225.5" y2="1250.5"/>
		
			<line display="inline" fill="none" stroke="#5BA1DA" stroke-width="2" stroke-miterlimit="10" x1="225.5" y1="1350.5" x2="225.5" y2="1325.5"/>
		
			<line display="inline" fill="none" stroke="#5BA1DA" stroke-width="2" stroke-miterlimit="10" x1="225.5" y1="1325.5" x2="250.5" y2="1325.5"/>
		
			<line display="inline" fill="none" stroke="#5BA1DA" stroke-width="2" stroke-miterlimit="10" x1="100.5" y1="1350.5" x2="225.5" y2="1350.5"/>
		
			<line display="inline" fill="none" stroke="#5BA1DA" stroke-width="2" stroke-miterlimit="10" x1="100.5" y1="1250.5" x2="225.5" y2="1250.5"/>
		
			<line display="inline" fill="none" stroke="#5BA1DA" stroke-width="2" stroke-miterlimit="10" x1="250.5" y1="1250.5" x2="550.5" y2="1250.5"/>
		
			<line display="inline" fill="none" stroke="#5BA1DA" stroke-width="2" stroke-miterlimit="10" x1="375.5" y1="525.5" x2="250.5" y2="525.5"/>
		
			<line display="inline" fill="none" stroke="#5BA1DA" stroke-width="2" stroke-miterlimit="10" x1="1200.5" y1="975.5" x2="1200.5" y2="700.5"/>
		
			<line display="inline" fill="none" stroke="#5BA1DA" stroke-width="2" stroke-miterlimit="10" x1="1250.5" y1="650.5" x2="1250.5" y2="1000.5"/>
		
			<line display="inline" fill="none" stroke="#5BA1DA" stroke-width="2" stroke-miterlimit="10" x1="375.5" y1="525.5" x2="375.5" y2="700.5"/>
		
			<line display="inline" fill="none" stroke="#5BA1DA" stroke-width="2" stroke-miterlimit="10" x1="250.5" y1="500.5" x2="375.5" y2="500.5"/>
		
			<line display="inline" fill="none" stroke="#5BA1DA" stroke-width="2" stroke-miterlimit="10" x1="375.5" y1="500.5" x2="375.5" y2="325.5"/>
		
			<line display="inline" fill="none" stroke="#5BA1DA" stroke-width="2" stroke-miterlimit="10" x1="1150.5" y1="500.5" x2="800.5" y2="500.5"/>
		
			<line display="inline" fill="none" stroke="#5BA1DA" stroke-width="2" stroke-miterlimit="10" x1="750.5" y1="500.5" x2="400.5" y2="500.5"/>
		
			<line display="inline" fill="none" stroke="#5BA1DA" stroke-width="2" stroke-miterlimit="10" x1="400.5" y1="525.5" x2="750.5" y2="525.5"/>
		
			<line display="inline" fill="none" stroke="#5BA1DA" stroke-width="2" stroke-miterlimit="10" x1="800.5" y1="525.5" x2="1150.5" y2="525.5"/>
		
			<line display="inline" fill="none" stroke="#5BA1DA" stroke-width="2" stroke-miterlimit="10" x1="750.5" y1="525.5" x2="750.5" y2="675.5"/>
		
			<line display="inline" fill="none" stroke="#5BA1DA" stroke-width="2" stroke-miterlimit="10" x1="800.5" y1="675.5" x2="800.5" y2="525.5"/>
		
			<line display="inline" fill="none" stroke="#5BA1DA" stroke-width="2" stroke-miterlimit="10" x1="750.5" y1="500.5" x2="750.5" y2="350.5"/>
		
			<line display="inline" fill="none" stroke="#5BA1DA" stroke-width="2" stroke-miterlimit="10" x1="800.5" y1="500.5" x2="800.5" y2="350.5"/>
		
			<line display="inline" fill="none" stroke="#5BA1DA" stroke-width="2" stroke-miterlimit="10" x1="1200.5" y1="650.5" x2="1250.5" y2="650.5"/>
		
			<line display="inline" fill="none" stroke="#5BA1DA" stroke-width="2" stroke-miterlimit="10" x1="1200.5" y1="650.5" x2="1200.5" y2="600.5"/>
		
			<line display="inline" fill="none" stroke="#5BA1DA" stroke-width="2" stroke-miterlimit="10" x1="1200.5" y1="600.5" x2="1700.5" y2="600.5"/>
		
			<line display="inline" fill="none" stroke="#5BA1DA" stroke-width="2" stroke-miterlimit="10" x1="2000.5" y1="550.5" x2="2000.5" y2="500.5"/>
		
			<line display="inline" fill="none" stroke="#5BA1DA" stroke-width="2" stroke-miterlimit="10" x1="2000.5" y1="500.5" x2="2050.5" y2="500.5"/>
		
			<line display="inline" fill="none" stroke="#5BA1DA" stroke-width="2" stroke-miterlimit="10" x1="1750.5" y1="600.5" x2="2050.5" y2="600.5"/>
		
			<line display="inline" fill="none" stroke="#5BA1DA" stroke-width="2" stroke-miterlimit="10" x1="2050.5" y1="600.5" x2="2050.5" y2="550.5"/>
		
			<line display="inline" fill="none" stroke="#5BA1DA" stroke-width="2" stroke-miterlimit="10" x1="1900.5" y1="700.5" x2="2200.5" y2="700.5"/>
		
			<line display="inline" fill="none" stroke="#5BA1DA" stroke-width="2" stroke-miterlimit="10" x1="2200.5" y1="700.5" x2="2200.5" y2="800.5"/>
		
			<line display="inline" fill="none" stroke="#5BA1DA" stroke-width="2" stroke-miterlimit="10" x1="2200.5" y1="800.5" x2="1900.5" y2="800.5"/>
		
			<line display="inline" fill="none" stroke="#5BA1DA" stroke-width="2" stroke-miterlimit="10" x1="1900.5" y1="800.5" x2="1900.5" y2="700.5"/>
		
			<line display="inline" fill="none" stroke="#5BA1DA" stroke-width="2" stroke-miterlimit="10" x1="1900.5" y1="900.5" x2="2200.5" y2="900.5"/>
		
			<line display="inline" fill="none" stroke="#5BA1DA" stroke-width="2" stroke-miterlimit="10" x1="2200.5" y1="900.5" x2="2200.5" y2="1000.5"/>
		
			<line display="inline" fill="none" stroke="#5BA1DA" stroke-width="2" stroke-miterlimit="10" x1="2200.5" y1="1000.5" x2="1900.5" y2="1000.5"/>
		
			<line display="inline" fill="none" stroke="#5BA1DA" stroke-width="2" stroke-miterlimit="10" x1="1900.5" y1="1000.5" x2="1900.5" y2="900.5"/>
		
			<line display="inline" fill="none" stroke="#5BA1DA" stroke-width="2" stroke-miterlimit="10" x1="1900.5" y1="1100.5" x2="2200.5" y2="1100.5"/>
		
			<line display="inline" fill="none" stroke="#5BA1DA" stroke-width="2" stroke-miterlimit="10" x1="2200.5" y1="1100.5" x2="2200.5" y2="1200.5"/>
		
			<line display="inline" fill="none" stroke="#5BA1DA" stroke-width="2" stroke-miterlimit="10" x1="2200.5" y1="1200.5" x2="1900.5" y2="1200.5"/>
		
			<line display="inline" fill="none" stroke="#5BA1DA" stroke-width="2" stroke-miterlimit="10" x1="1900.5" y1="1200.5" x2="1900.5" y2="1100.5"/>
		
			<line display="inline" fill="none" stroke="#5BA1DA" stroke-width="2" stroke-miterlimit="10" x1="1500.5" y1="900.5" x2="1800.5" y2="900.5"/>
		
			<line display="inline" fill="none" stroke="#5BA1DA" stroke-width="2" stroke-miterlimit="10" x1="1800.5" y1="900.5" x2="1800.5" y2="1000.5"/>
		
			<line display="inline" fill="none" stroke="#5BA1DA" stroke-width="2" stroke-miterlimit="10" x1="1800.5" y1="1000.5" x2="1500.5" y2="1000.5"/>
		
			<line display="inline" fill="none" stroke="#5BA1DA" stroke-width="2" stroke-miterlimit="10" x1="1500.5" y1="1000.5" x2="1500.5" y2="900.5"/>
		
			<line display="inline" fill="none" stroke="#5BA1DA" stroke-width="2" stroke-miterlimit="10" x1="1500.5" y1="1100.5" x2="1800.5" y2="1100.5"/>
		
			<line display="inline" fill="none" stroke="#5BA1DA" stroke-width="2" stroke-miterlimit="10" x1="1800.5" y1="1100.5" x2="1800.5" y2="1200.5"/>
		
			<line display="inline" fill="none" stroke="#5BA1DA" stroke-width="2" stroke-miterlimit="10" x1="1800.5" y1="1200.5" x2="1500.5" y2="1200.5"/>
		
			<line display="inline" fill="none" stroke="#5BA1DA" stroke-width="2" stroke-miterlimit="10" x1="1500.5" y1="1200.5" x2="1500.5" y2="1100.5"/>
	</g>
</g>
<g id="Layer_2">
	<rect x="175.5" y="150.5" fill="none" stroke="#E32830" stroke-miterlimit="10" width="125" height="50"/>
	<rect x="175.5" y="200.5" fill="none" stroke="#E32830" stroke-miterlimit="10" width="25" height="250"/>
	<rect x="100.5" y="275.5" fill="none" stroke="#E32830" stroke-miterlimit="10" width="75" height="25"/>
	<rect x="75.5" y="275.5" fill="none" stroke="#E32830" stroke-miterlimit="10" width="25" height="225"/>
	<rect x="75.5" y="500.5" fill="none" stroke="#E32830" stroke-miterlimit="10" width="125" height="25"/>
	<rect x="175.5" y="525.5" fill="none" stroke="#E32830" stroke-miterlimit="10" width="25" height="75"/>
	<rect x="275.5" y="600.5" fill="none" stroke="#E32830" stroke-miterlimit="10" width="25" height="100"/>
	<rect x="75.5" y="600.5" fill="none" stroke="#E32830" stroke-miterlimit="10" width="200" height="25"/>
	<rect x="75.5" y="625.5" fill="none" stroke="#E32830" stroke-miterlimit="10" width="25" height="725"/>
	<rect x="75.5" y="1350.5" fill="none" stroke="#E32830" stroke-miterlimit="10" width="150" height="25"/>
	<rect x="225.5" y="1325.5" fill="none" stroke="#E32830" stroke-miterlimit="10" width="25" height="175"/>
	<rect x="225.5" y="1500.5" fill="none" stroke="#E32830" stroke-miterlimit="10" width="1900" height="25"/>
	<rect x="2100.5" y="1300.5" fill="none" stroke="#E32830" stroke-miterlimit="10" width="25" height="200"/>
	<rect x="2125.5" y="1300.5" fill="none" stroke="#E32830" stroke-miterlimit="10" width="200" height="25"/>
	<rect x="2300.5" y="225.5" fill="none" stroke="#E32830" stroke-miterlimit="10" width="25" height="1075"/>
	<rect x="2150.5" y="225.5" fill="none" stroke="#E32830" stroke-miterlimit="10" width="150" height="25"/>
	<rect x="2150.5" y="125.5" fill="none" stroke="#E32830" stroke-miterlimit="10" width="25" height="100"/>
	<rect x="2000.5" y="125.5" fill="none" stroke="#E32830" stroke-miterlimit="10" width="150" height="25"/>
	<rect x="2000.5" y="150.5" fill="none" stroke="#E32830" stroke-miterlimit="10" width="50" height="300"/>
	<rect x="1950.5" y="150.5" fill="none" stroke="#E32830" stroke-miterlimit="10" width="50" height="50"/>
	<rect x="2000.5" y="500.5" fill="none" stroke="#E32830" stroke-miterlimit="10" width="50" height="100"/>
	<rect x="1150.5" y="550.5" fill="none" stroke="#E32830" stroke-miterlimit="10" width="850" height="50"/>
	<rect x="1700.5" y="600.5" fill="none" stroke="#E32830" stroke-miterlimit="10" width="50" height="100"/>
	<rect x="1900.5" y="700.5" fill="none" stroke="#E32830" stroke-miterlimit="10" width="300" height="100"/>
	<rect x="1900.5" y="900.5" fill="none" stroke="#E32830" stroke-miterlimit="10" width="300" height="100"/>
	<rect x="1900.5" y="1100.5" fill="none" stroke="#E32830" stroke-miterlimit="10" width="300" height="100"/>
	<rect x="1700.5" y="1350.5" fill="none" stroke="#E32830" stroke-miterlimit="10" width="50" height="150"/>
	<rect x="1200.5" y="1050.5" fill="none" stroke="#E32830" stroke-miterlimit="10" width="50" height="450"/>
	<rect x="1050.5" y="1225.5" fill="none" stroke="#E32830" stroke-miterlimit="10" width="150" height="25"/>
	<rect x="600.5" y="1225.5" fill="none" stroke="#E32830" stroke-miterlimit="10" width="400" height="25"/>
	<rect x="775.5" y="1250.5" fill="none" stroke="#E32830" stroke-miterlimit="10" width="25" height="250"/>
	<rect x="225.5" y="1250.5" fill="none" stroke="#E32830" stroke-miterlimit="10" width="25" height="25"/>
	<rect x="100.5" y="1225.5" fill="none" stroke="#E32830" stroke-miterlimit="10" width="450" height="25"/>
	<rect x="525.5" y="950.5" fill="none" stroke="#E32830" stroke-miterlimit="10" width="25" height="275"/>
	<rect x="350.5" y="950.5" fill="none" stroke="#E32830" stroke-miterlimit="10" width="175" height="25"/>
	<rect x="550.5" y="975.5" fill="none" stroke="#E32830" stroke-miterlimit="10" width="200" height="25"/>
	<rect x="800.5" y="975.5" fill="none" stroke="#E32830" stroke-miterlimit="10" width="450" height="25"/>
	<rect x="1200.5" y="650.5" fill="none" stroke="#E32830" stroke-miterlimit="10" width="50" height="325"/>
	<rect x="1150.5" y="600.5" fill="none" stroke="#E32830" stroke-miterlimit="10" width="50" height="100"/>
	<rect x="1025.5" y="675.5" fill="none" stroke="#E32830" stroke-miterlimit="10" width="125" height="25"/>
	<rect x="1150.5" y="325.5" fill="none" stroke="#E32830" stroke-miterlimit="10" width="25" height="225"/>
	<rect x="1025.5" y="325.5" fill="none" stroke="#E32830" stroke-miterlimit="10" width="125" height="25"/>
	<rect x="250.5" y="500.5" fill="none" stroke="#E32830" stroke-miterlimit="10" width="900" height="25"/>
	<rect x="575.5" y="675.5" fill="none" stroke="#E32830" stroke-miterlimit="10" width="400" height="25"/>
	<rect x="750.5" y="525.5" fill="none" stroke="#E32830" stroke-miterlimit="10" width="50" height="150"/>
	<rect x="750.5" y="350.5" fill="none" stroke="#E32830" stroke-miterlimit="10" width="50" height="150"/>
	<rect x="575.5" y="325.5" fill="none" stroke="#E32830" stroke-miterlimit="10" width="400" height="25"/>
	<rect x="375.5" y="325.5" fill="none" stroke="#E32830" stroke-miterlimit="10" width="150" height="25"/>
	<rect x="375.5" y="350.5" fill="none" stroke="#E32830" stroke-miterlimit="10" width="25" height="150"/>
	<rect x="375.5" y="525.5" fill="none" stroke="#E32830" stroke-miterlimit="10" width="25" height="150"/>
	<rect x="375.5" y="675.5" fill="none" stroke="#E32830" stroke-miterlimit="10" width="150" height="25"/>
	<rect x="350.5" y="150.5" fill="none" stroke="#E32830" stroke-miterlimit="10" width="150" height="50"/>
	<rect x="400.5" y="50.5" fill="none" stroke="#E32830" stroke-miterlimit="10" width="50" height="100"/>
	<rect x="225.5" y="50.5" fill="none" stroke="#E32830" stroke-miterlimit="10" width="25" height="100"/>
	<rect x="600.5" y="50.5" fill="none" stroke="#E32830" stroke-miterlimit="10" width="50" height="100"/>
	<rect x="550.5" y="150.5" fill="none" stroke="#E32830" stroke-miterlimit="10" width="150" height="50"/>
	<rect x="750.5" y="150.5" fill="none" stroke="#E32830" stroke-miterlimit="10" width="150" height="50"/>
	<rect x="800.5" y="50.5" fill="none" stroke="#E32830" stroke-miterlimit="10" width="50" height="100"/>
	<rect x="1000.5" y="50.5" fill="none" stroke="#E32830" stroke-miterlimit="10" width="50" height="100"/>
	<rect x="950.5" y="150.5" fill="none" stroke="#E32830" stroke-miterlimit="10" width="150" height="50"/>
	<rect x="1150.5" y="150.5" fill="none" stroke="#E32830" stroke-miterlimit="10" width="150" height="50"/>
	<rect x="1200.5" y="50.5" fill="none" stroke="#E32830" stroke-miterlimit="10" width="50" height="100"/>
	<rect x="1350.5" y="150.5" fill="none" stroke="#E32830" stroke-miterlimit="10" width="150" height="50"/>
	<rect x="1400.5" y="50.5" fill="none" stroke="#E32830" stroke-miterlimit="10" width="50" height="100"/>
	<rect x="1550.5" y="150.5" fill="none" stroke="#E32830" stroke-miterlimit="10" width="150" height="50"/>
	<rect x="1600.5" y="50.5" fill="none" stroke="#E32830" stroke-miterlimit="10" width="50" height="100"/>
	<rect x="1750.5" y="150.5" fill="none" stroke="#E32830" stroke-miterlimit="10" width="150" height="50"/>
	<rect x="1800.5" y="50.5" fill="none" stroke="#E32830" stroke-miterlimit="10" width="50" height="100"/>
	<rect x="1500.5" y="900.5" fill="none" stroke="#E32830" stroke-miterlimit="10" width="300" height="100"/>
	<rect x="1500.5" y="1100.5" fill="none" stroke="#E32830" stroke-miterlimit="10" width="300" height="100"/>
	<rect x="225.5" y="25.5" fill="none" stroke="#E32830" stroke-miterlimit="10" width="1775" height="25"/>
	<rect x="2000.5" y="50.5" fill="none" stroke="#E32830" stroke-miterlimit="10" width="25" height="75"/>
	<rect x="275.5" y="750.5" fill="none" stroke="#E32830" stroke-miterlimit="10" width="25" height="225"/>
	<rect x="100.5" y="950.5" fill="none" stroke="#E32830" stroke-miterlimit="10" width="175" height="25"/>
</g>
</svg>
